<svg width="57" height="57" viewBox="0 0 57 57" fill="none" xmlns="http://www.w3.org/2000/svg">
<path d="M46.5041 25.9821C46.2104 25.9821 45.9494 25.7537 45.982 25.4927C45.982 25.3295 45.982 25.1664 45.982 25.0033V9.53836C45.982 9.24472 46.2104 8.98371 46.5041 8.98371C51.1696 8.98371 54.9869 12.801 54.9869 17.4992C54.9869 22.1974 51.1696 25.9821 46.5041 25.9821ZM43.9918 25.0033C43.9918 33.2578 37.2708 39.9788 28.9837 39.9788C20.7292 39.9788 14.0081 33.2578 14.0081 25.0033V3.50247C14.0081 3.20883 14.2365 3.01307 14.4975 3.01307H43.5024C43.7634 3.01307 43.9918 3.20883 43.9918 3.50247V25.0033ZM38.478 50.9739C38.7716 50.9739 39 51.2023 39 51.4959V54.4976C39 54.7586 38.7716 54.987 38.478 54.987H19.4894C19.2284 54.987 19 54.7586 19 54.4976V51.4959C19 51.2023 19.2284 50.9739 19.4894 50.9739H38.478ZM3.01304 17.4992C3.01304 12.801 6.79771 8.98371 11.4959 8.98371C11.7896 8.98371 11.9853 9.24472 11.9853 9.53836V25.0033C11.9853 25.1664 12.0179 25.3295 12.0179 25.4927C12.0179 25.7863 11.7896 25.9821 11.4959 25.9821C6.79771 25.9821 3.01304 22.1974 3.01304 17.4992ZM46.5041 6.9935C46.2104 6.9935 45.982 6.79774 45.982 6.53673V2.00165C45.982 1.447 45.5579 0.990234 45.0033 0.990234H12.9967C12.4421 0.990234 11.9853 1.447 11.9853 2.00165V6.53673C11.9853 6.79774 11.7569 6.9935 11.4959 6.9935C5.68841 6.9935 0.990204 11.6917 0.990204 17.4992C0.990204 23.3067 5.68841 28.0049 11.4959 28.0049C11.5612 28.0049 11.6264 28.0049 11.6917 28.0049C12.0179 27.9723 12.3116 28.168 12.3768 28.4943C13.8776 35.7048 19.9788 41.2186 27.4502 41.9038C27.7439 41.9364 28.0049 42.1322 28.0049 42.4258V48.4943C28.0049 48.7553 27.7765 48.9837 27.4829 48.9837H17.9886C17.4339 48.9837 17.0098 49.4405 17.0098 49.9951V55.9984C17.0098 56.553 17.4339 56.9772 17.9886 56.9772H39.9788C40.5334 56.9772 40.9902 56.553 40.9902 55.9984V49.9951C40.9902 49.4405 40.5334 48.9837 39.9788 48.9837H30.4845C30.2235 48.9837 29.9951 48.7553 29.9951 48.4943V42.4258C29.9951 42.1322 30.2561 41.9364 30.5497 41.9038C38.0212 41.2186 44.0897 35.6721 45.6232 28.4617C45.6884 28.168 45.982 27.9723 46.3083 28.0049C46.3736 28.0049 46.4388 28.0049 46.5041 28.0049C52.2789 28.0049 56.9771 23.3067 56.9771 17.4992C56.9771 11.6917 52.2789 6.9935 46.5041 6.9935Z" fill="#329FD9"/>
</svg>
