<svg width="60" height="59" viewBox="0 0 60 59" fill="none" xmlns="http://www.w3.org/2000/svg">
<path d="M45.5152 18.4664C45.6174 18.1769 45.8899 17.9896 46.1965 17.9896H56.3129C56.5172 17.9896 56.6364 18.228 56.5172 18.3983L33.253 50.6719C33.2189 50.74 33.1167 50.689 33.1508 50.6038L45.5152 18.4664ZM31.0049 18.5005C31.0049 18.228 31.2263 17.9896 31.4988 17.9896H43.0458C43.2842 17.9896 43.4545 18.245 43.3693 18.4664L31.1922 50.144C31.1411 50.2291 31.0049 50.2121 31.0049 50.1099V18.5005ZM31.0049 3.01936C31.0049 2.84905 31.2263 2.7639 31.3285 2.90014L42.4667 15.6223C42.603 15.7755 42.5008 15.9969 42.2964 15.9969H31.4988C31.2263 15.9969 31.0049 15.7755 31.0049 15.503V3.01936ZM43.6078 1.9975C43.9143 1.9975 44.2209 2.13375 44.4253 2.37218L56.1255 15.6223C56.2447 15.7755 56.1426 15.9969 55.9552 15.9969H45.958C45.6345 15.9969 45.3279 15.8607 45.1235 15.6223L33.5425 2.37218C33.4062 2.23594 33.5084 1.9975 33.7128 1.9975H43.6078ZM29.0123 15.503C29.0123 15.7755 28.7738 15.9969 28.5013 15.9969H17.7037C17.5164 15.9969 17.4142 15.7755 17.5334 15.6223L28.6716 2.90014C28.7909 2.7639 29.0123 2.84905 29.0123 3.01936V15.503ZM29.0123 50.1099C29.0123 50.2121 28.859 50.2291 28.8249 50.144L16.6478 18.4664C16.5626 18.245 16.7159 17.9896 16.9544 17.9896H28.5013C28.7738 17.9896 29.0123 18.228 29.0123 18.5005V50.1099ZM3.48288 18.3983C3.36367 18.228 3.48288 17.9896 3.68726 17.9896H13.8207C14.1272 17.9896 14.3997 18.1769 14.5019 18.4664L26.8664 50.6038C26.8834 50.689 26.7982 50.74 26.7471 50.6719L3.48288 18.3983ZM15.5749 2.37218C15.7792 2.13375 16.0858 1.9975 16.4094 1.9975H26.3043C26.4917 1.9975 26.5939 2.23594 26.4747 2.37218L14.8766 15.6223C14.6722 15.8607 14.3657 15.9969 14.0591 15.9969H4.06194C3.85757 15.9969 3.75538 15.7755 3.89163 15.6223L15.5749 2.37218ZM45.6685 0.754244C45.2427 0.277378 44.6296 0.00488281 43.9995 0.00488281H16.0006C15.3705 0.00488281 14.7574 0.277378 14.3486 0.754244L0.672779 16.2524C0.281068 16.6782 0.247006 17.3424 0.587625 17.8022L29.421 57.7909C29.7105 58.1996 30.3066 58.1996 30.5961 57.7909L59.4125 17.8022C59.7531 17.3424 59.719 16.6782 59.3444 16.2524L45.6685 0.754244Z" fill="#329FD9"/>
</svg>
