<svg width="54" height="57" viewBox="0 0 54 57" fill="none" xmlns="http://www.w3.org/2000/svg">
<path d="M51.9979 41.0009C51.9979 41.2706 51.7717 41.4968 51.4933 41.4968H44.499C44.2206 41.4968 43.9944 41.2706 43.9944 41.0009V29.9961C43.9944 29.7177 44.2206 29.5003 44.499 29.5003H51.4933C51.7717 29.5003 51.9979 29.7177 51.9979 29.9961V41.0009ZM9.50113 29.5003C9.77951 29.5003 9.99699 29.7177 9.99699 29.9961V41.0009C9.99699 41.2706 9.77951 41.4968 9.50113 41.4968H2.49808C2.2197 41.4968 2.00221 41.2706 2.00221 41.0009V29.9961C2.00221 29.7177 2.2197 29.5003 2.49808 29.5003H9.50113ZM49.5011 27.4994C49.214 27.4994 48.9966 27.2471 48.9966 26.9687C48.9966 25.7943 48.9966 23.0627 48.9966 22.4972C48.9966 10.3528 39.1488 0.496338 26.9957 0.496338C14.8513 0.496338 5.00352 10.3528 5.00352 22.4972C5.00352 23.0627 5.00352 25.7943 5.00352 26.9687C5.00352 27.2471 4.78603 27.4994 4.49895 27.4994H1.00178C0.445014 27.4994 0.00134277 27.9431 0.00134277 28.4998V42.4972C0.00134277 43.054 0.445014 43.4976 1.00178 43.4976H10.9974C11.5542 43.4976 11.9979 43.054 11.9979 42.4972V28.4998C11.9979 27.9431 11.5542 27.4994 10.9974 27.4994H7.50026C7.21317 27.4994 6.99569 27.2471 6.99569 26.9687C6.99569 25.7943 6.99569 23.0627 6.99569 22.4972C6.99569 11.475 15.9735 2.49721 26.9957 2.49721C38.0266 2.49721 46.9957 11.475 46.9957 22.4972C46.9957 23.0627 46.9957 25.7943 46.9957 26.9687C46.9957 27.2471 46.7782 27.4994 46.4998 27.4994H42.9939C42.4459 27.4994 41.9935 27.9431 41.9935 28.4998V42.4972C41.9935 43.054 42.4459 43.4976 42.9939 43.4976H45.7778C46.0126 43.4976 46.117 43.7673 45.9953 43.9587C44.1597 46.9339 41.5672 49.3872 38.4789 51.0575C38.2006 51.2053 37.8613 51.1357 37.5916 50.9618C37.1305 50.666 36.5825 50.5007 35.9996 50.5007C34.338 50.5007 32.9983 51.8404 32.9983 53.4933C32.9983 55.1549 34.338 56.4946 35.9996 56.4946C37.6003 56.4946 38.9139 55.2332 38.9922 53.6499C39.0096 53.3628 39.0879 53.0496 39.3402 52.9104C43.1766 50.8574 46.3258 47.6995 48.3789 43.8717C48.5181 43.6194 48.7965 43.4976 49.0749 43.4976H52.9983C53.5464 43.4976 53.9987 43.054 53.9987 42.4972V28.4998C53.9987 27.9431 53.5464 27.4994 52.9983 27.4994H49.5011Z" fill="#329FD9"/>
</svg>
